M48
; DRILL file {KiCad (5.1.4)-1} date 02/21/2020 10:14:33 AM
; FORMAT={-:-/ absolute / inch / decimal}
; #@! TF.CreationDate,2020-02-21T10:14:33-05:00
; #@! TF.GenerationSoftware,Kicad,Pcbnew,(5.1.4)-1
FMAT,2
INCH
T1C0.0315
%
G90
G05
T1
X7.6769Y-5.7891
X7.8328Y-5.7891
X7.9887Y-5.7891
X8.1446Y-5.7891
X8.3005Y-5.7891
X8.4564Y-5.7891
X8.6123Y-5.7891
X8.7682Y-5.7891
X8.9241Y-5.7891
X9.08Y-5.7891
X9.2359Y-5.7891
X9.3918Y-5.7891
X9.5477Y-5.7891
X9.7036Y-5.7891
X9.8596Y-5.7891
X10.0155Y-5.7891
X10.1714Y-5.7891
X10.3273Y-5.7891
X10.4832Y-5.7891
X10.6391Y-5.7891
X10.795Y-5.7891
X10.9509Y-5.7891
X11.1068Y-5.7891
X11.2627Y-5.7891
X11.4186Y-5.7891
X11.5745Y-5.7891
X11.7304Y-5.7891
X11.8863Y-5.7891
X12.0422Y-5.7891
X12.1981Y-5.7891
T0
M30
