%TF.GenerationSoftware,KiCad,Pcbnew,(5.1.4)-1*%
%TF.CreationDate,2020-02-21T10:12:18-05:00*%
%TF.ProjectId,5251,35323531-2e6b-4696-9361-645f70636258,0.0.2*%
%TF.SameCoordinates,Original*%
%TF.FileFunction,Profile,NP*%
%FSLAX46Y46*%
G04 Gerber Fmt 4.6, Leading zero omitted, Abs format (unit mm)*
G04 Created by KiCad (PCBNEW (5.1.4)-1) date 2020-02-21 10:12:18*
%MOMM*%
%LPD*%
G04 APERTURE LIST*
%ADD10C,0.200000*%
%ADD11C,0.050000*%
G04 APERTURE END LIST*
D10*
X263780705Y-142705529D02*
X263780705Y-151675529D01*
X192620706Y-142705529D02*
X263780705Y-142705529D01*
X192620706Y-151675529D02*
X192620706Y-142705529D01*
X76760706Y-151675529D02*
X192620706Y-151675529D01*
X76760706Y-281925529D02*
X76760706Y-151675529D01*
X500750705Y-281925529D02*
X76760706Y-281925529D01*
X500750705Y-151675529D02*
X500750705Y-281925529D01*
X312000705Y-151675529D02*
X500750705Y-151675529D01*
X312000705Y-142705529D02*
X312000705Y-151675529D01*
X264780706Y-142705529D02*
X312000705Y-142705529D01*
X255965705Y-278390528D02*
G75*
G03X255965705Y-278390528I-2100000J0D01*
G01*
X412350705Y-278390528D02*
G75*
G03X412350705Y-278390528I-2100000J0D01*
G01*
X412190705Y-161930529D02*
G75*
G03X412190705Y-161930529I-2100000J0D01*
G01*
X421790706Y-278390528D02*
G75*
G03X421790706Y-278390528I-2100000J0D01*
G01*
X421790706Y-161930529D02*
G75*
G03X421790706Y-161930529I-2100000J0D01*
G01*
X488900705Y-278390528D02*
G75*
G03X488900705Y-278390528I-2100000J0D01*
G01*
X488900705Y-161930529D02*
G75*
G03X488900705Y-161930529I-2100000J0D01*
G01*
X98135705Y-278390528D02*
G75*
G03X98135705Y-278390528I-2099999J0D01*
G01*
X88535706Y-278390528D02*
G75*
G03X88535706Y-278390528I-2100000J0D01*
G01*
X98135705Y-161930529D02*
G75*
G03X98135705Y-161930529I-2099999J0D01*
G01*
X88535706Y-161930529D02*
G75*
G03X88535706Y-161930529I-2100000J0D01*
G01*
X90537255Y-151675529D02*
X90537255Y-151675529D01*
D11*
X120729266Y-154781380D02*
G75*
G03X120729266Y-154781380I-1666666J0D01*
G01*
X116562600Y-154781380D02*
X121562600Y-154781380D01*
X119062600Y-152281380D02*
X119062600Y-157281380D01*
D10*
X263780705Y-151675529D02*
X264780706Y-151675529D01*
X264780706Y-151675529D02*
X264780706Y-142705529D01*
X255965705Y-161930529D02*
G75*
G03X255965705Y-161930529I-2100000J0D01*
G01*
X90537255Y-151675529D02*
X90537255Y-151675529D01*
M02*
