%TF.GenerationSoftware,KiCad,Pcbnew,(5.1.4)-1*%
%TF.CreationDate,2020-02-21T10:12:18-05:00*%
%TF.ProjectId,5251,35323531-2e6b-4696-9361-645f70636258,0.0.2*%
%TF.SameCoordinates,Original*%
%TF.FileFunction,Soldermask,Top*%
%TF.FilePolarity,Negative*%
%FSLAX46Y46*%
G04 Gerber Fmt 4.6, Leading zero omitted, Abs format (unit mm)*
G04 Created by KiCad (PCBNEW (5.1.4)-1) date 2020-02-21 10:12:18*
%MOMM*%
%LPD*%
G04 APERTURE LIST*
%ADD10C,0.150000*%
G04 APERTURE END LIST*
D10*
G36*
X195247620Y-142525229D02*
G01*
X195492860Y-142599622D01*
X195718874Y-142720429D01*
X195916977Y-142883008D01*
X196079556Y-143081110D01*
X196200363Y-143307124D01*
X196274756Y-143552364D01*
X196293581Y-143743499D01*
X196293581Y-150341309D01*
X196274756Y-150532444D01*
X196200363Y-150777684D01*
X196079556Y-151003698D01*
X196037205Y-151055303D01*
X195916978Y-151201801D01*
X195770480Y-151322028D01*
X195718875Y-151364379D01*
X195492861Y-151485186D01*
X195247621Y-151559579D01*
X194992581Y-151584698D01*
X194737542Y-151559579D01*
X194492302Y-151485186D01*
X194266288Y-151364379D01*
X194214683Y-151322028D01*
X194068185Y-151201801D01*
X193947958Y-151055303D01*
X193905607Y-151003698D01*
X193784800Y-150777684D01*
X193710407Y-150532444D01*
X193691582Y-150341309D01*
X193691581Y-143743500D01*
X193710406Y-143552365D01*
X193784799Y-143307125D01*
X193905606Y-143081111D01*
X194068185Y-142883008D01*
X194266287Y-142720429D01*
X194266286Y-142720429D01*
X194266288Y-142720428D01*
X194492299Y-142599623D01*
X194492301Y-142599622D01*
X194737541Y-142525229D01*
X194992581Y-142500110D01*
X195247620Y-142525229D01*
X195247620Y-142525229D01*
G37*
G36*
X310087620Y-142525229D02*
G01*
X310332860Y-142599622D01*
X310558874Y-142720429D01*
X310756977Y-142883008D01*
X310919556Y-143081110D01*
X311040363Y-143307124D01*
X311114756Y-143552364D01*
X311133581Y-143743499D01*
X311133581Y-150341309D01*
X311114756Y-150532444D01*
X311040363Y-150777684D01*
X310919556Y-151003698D01*
X310877205Y-151055303D01*
X310756978Y-151201801D01*
X310610480Y-151322028D01*
X310558875Y-151364379D01*
X310332861Y-151485186D01*
X310087621Y-151559579D01*
X309832581Y-151584698D01*
X309577542Y-151559579D01*
X309332302Y-151485186D01*
X309106288Y-151364379D01*
X309054683Y-151322028D01*
X308908185Y-151201801D01*
X308787958Y-151055303D01*
X308745607Y-151003698D01*
X308624800Y-150777684D01*
X308550407Y-150532444D01*
X308531582Y-150341309D01*
X308531581Y-143743500D01*
X308550406Y-143552365D01*
X308624799Y-143307125D01*
X308745606Y-143081111D01*
X308908185Y-142883008D01*
X309106287Y-142720429D01*
X309106286Y-142720429D01*
X309106288Y-142720428D01*
X309332299Y-142599623D01*
X309332301Y-142599622D01*
X309577541Y-142525229D01*
X309832581Y-142500110D01*
X310087620Y-142525229D01*
X310087620Y-142525229D01*
G37*
G36*
X306127620Y-142525229D02*
G01*
X306372860Y-142599622D01*
X306598874Y-142720429D01*
X306796977Y-142883008D01*
X306959556Y-143081110D01*
X307080363Y-143307124D01*
X307154756Y-143552364D01*
X307173581Y-143743499D01*
X307173581Y-150341309D01*
X307154756Y-150532444D01*
X307080363Y-150777684D01*
X306959556Y-151003698D01*
X306917205Y-151055303D01*
X306796978Y-151201801D01*
X306650480Y-151322028D01*
X306598875Y-151364379D01*
X306372861Y-151485186D01*
X306127621Y-151559579D01*
X305872581Y-151584698D01*
X305617542Y-151559579D01*
X305372302Y-151485186D01*
X305146288Y-151364379D01*
X305094683Y-151322028D01*
X304948185Y-151201801D01*
X304827958Y-151055303D01*
X304785607Y-151003698D01*
X304664800Y-150777684D01*
X304590407Y-150532444D01*
X304571582Y-150341309D01*
X304571581Y-143743500D01*
X304590406Y-143552365D01*
X304664799Y-143307125D01*
X304785606Y-143081111D01*
X304948185Y-142883008D01*
X305146287Y-142720429D01*
X305146286Y-142720429D01*
X305146288Y-142720428D01*
X305372299Y-142599623D01*
X305372301Y-142599622D01*
X305617541Y-142525229D01*
X305872581Y-142500110D01*
X306127620Y-142525229D01*
X306127620Y-142525229D01*
G37*
G36*
X302167620Y-142525229D02*
G01*
X302412860Y-142599622D01*
X302638874Y-142720429D01*
X302836977Y-142883008D01*
X302999556Y-143081110D01*
X303120363Y-143307124D01*
X303194756Y-143552364D01*
X303213581Y-143743499D01*
X303213581Y-150341309D01*
X303194756Y-150532444D01*
X303120363Y-150777684D01*
X302999556Y-151003698D01*
X302957205Y-151055303D01*
X302836978Y-151201801D01*
X302690480Y-151322028D01*
X302638875Y-151364379D01*
X302412861Y-151485186D01*
X302167621Y-151559579D01*
X301912581Y-151584698D01*
X301657542Y-151559579D01*
X301412302Y-151485186D01*
X301186288Y-151364379D01*
X301134683Y-151322028D01*
X300988185Y-151201801D01*
X300867958Y-151055303D01*
X300825607Y-151003698D01*
X300704800Y-150777684D01*
X300630407Y-150532444D01*
X300611582Y-150341309D01*
X300611581Y-143743500D01*
X300630406Y-143552365D01*
X300704799Y-143307125D01*
X300825606Y-143081111D01*
X300988185Y-142883008D01*
X301186287Y-142720429D01*
X301186286Y-142720429D01*
X301186288Y-142720428D01*
X301412299Y-142599623D01*
X301412301Y-142599622D01*
X301657541Y-142525229D01*
X301912581Y-142500110D01*
X302167620Y-142525229D01*
X302167620Y-142525229D01*
G37*
G36*
X298207620Y-142525229D02*
G01*
X298452860Y-142599622D01*
X298678874Y-142720429D01*
X298876977Y-142883008D01*
X299039556Y-143081110D01*
X299160363Y-143307124D01*
X299234756Y-143552364D01*
X299253581Y-143743499D01*
X299253581Y-150341309D01*
X299234756Y-150532444D01*
X299160363Y-150777684D01*
X299039556Y-151003698D01*
X298997205Y-151055303D01*
X298876978Y-151201801D01*
X298730480Y-151322028D01*
X298678875Y-151364379D01*
X298452861Y-151485186D01*
X298207621Y-151559579D01*
X297952581Y-151584698D01*
X297697542Y-151559579D01*
X297452302Y-151485186D01*
X297226288Y-151364379D01*
X297174683Y-151322028D01*
X297028185Y-151201801D01*
X296907958Y-151055303D01*
X296865607Y-151003698D01*
X296744800Y-150777684D01*
X296670407Y-150532444D01*
X296651582Y-150341309D01*
X296651581Y-143743500D01*
X296670406Y-143552365D01*
X296744799Y-143307125D01*
X296865606Y-143081111D01*
X297028185Y-142883008D01*
X297226287Y-142720429D01*
X297226286Y-142720429D01*
X297226288Y-142720428D01*
X297452299Y-142599623D01*
X297452301Y-142599622D01*
X297697541Y-142525229D01*
X297952581Y-142500110D01*
X298207620Y-142525229D01*
X298207620Y-142525229D01*
G37*
G36*
X294247620Y-142525229D02*
G01*
X294492860Y-142599622D01*
X294718874Y-142720429D01*
X294916977Y-142883008D01*
X295079556Y-143081110D01*
X295200363Y-143307124D01*
X295274756Y-143552364D01*
X295293581Y-143743499D01*
X295293581Y-150341309D01*
X295274756Y-150532444D01*
X295200363Y-150777684D01*
X295079556Y-151003698D01*
X295037205Y-151055303D01*
X294916978Y-151201801D01*
X294770480Y-151322028D01*
X294718875Y-151364379D01*
X294492861Y-151485186D01*
X294247621Y-151559579D01*
X293992581Y-151584698D01*
X293737542Y-151559579D01*
X293492302Y-151485186D01*
X293266288Y-151364379D01*
X293214683Y-151322028D01*
X293068185Y-151201801D01*
X292947958Y-151055303D01*
X292905607Y-151003698D01*
X292784800Y-150777684D01*
X292710407Y-150532444D01*
X292691582Y-150341309D01*
X292691581Y-143743500D01*
X292710406Y-143552365D01*
X292784799Y-143307125D01*
X292905606Y-143081111D01*
X293068185Y-142883008D01*
X293266287Y-142720429D01*
X293266286Y-142720429D01*
X293266288Y-142720428D01*
X293492299Y-142599623D01*
X293492301Y-142599622D01*
X293737541Y-142525229D01*
X293992581Y-142500110D01*
X294247620Y-142525229D01*
X294247620Y-142525229D01*
G37*
G36*
X290287620Y-142525229D02*
G01*
X290532860Y-142599622D01*
X290758874Y-142720429D01*
X290956977Y-142883008D01*
X291119556Y-143081110D01*
X291240363Y-143307124D01*
X291314756Y-143552364D01*
X291333581Y-143743499D01*
X291333581Y-150341309D01*
X291314756Y-150532444D01*
X291240363Y-150777684D01*
X291119556Y-151003698D01*
X291077205Y-151055303D01*
X290956978Y-151201801D01*
X290810480Y-151322028D01*
X290758875Y-151364379D01*
X290532861Y-151485186D01*
X290287621Y-151559579D01*
X290032581Y-151584698D01*
X289777542Y-151559579D01*
X289532302Y-151485186D01*
X289306288Y-151364379D01*
X289254683Y-151322028D01*
X289108185Y-151201801D01*
X288987958Y-151055303D01*
X288945607Y-151003698D01*
X288824800Y-150777684D01*
X288750407Y-150532444D01*
X288731582Y-150341309D01*
X288731581Y-143743500D01*
X288750406Y-143552365D01*
X288824799Y-143307125D01*
X288945606Y-143081111D01*
X289108185Y-142883008D01*
X289306287Y-142720429D01*
X289306286Y-142720429D01*
X289306288Y-142720428D01*
X289532299Y-142599623D01*
X289532301Y-142599622D01*
X289777541Y-142525229D01*
X290032581Y-142500110D01*
X290287620Y-142525229D01*
X290287620Y-142525229D01*
G37*
G36*
X286327620Y-142525229D02*
G01*
X286572860Y-142599622D01*
X286798874Y-142720429D01*
X286996977Y-142883008D01*
X287159556Y-143081110D01*
X287280363Y-143307124D01*
X287354756Y-143552364D01*
X287373581Y-143743499D01*
X287373581Y-150341309D01*
X287354756Y-150532444D01*
X287280363Y-150777684D01*
X287159556Y-151003698D01*
X287117205Y-151055303D01*
X286996978Y-151201801D01*
X286850480Y-151322028D01*
X286798875Y-151364379D01*
X286572861Y-151485186D01*
X286327621Y-151559579D01*
X286072581Y-151584698D01*
X285817542Y-151559579D01*
X285572302Y-151485186D01*
X285346288Y-151364379D01*
X285294683Y-151322028D01*
X285148185Y-151201801D01*
X285027958Y-151055303D01*
X284985607Y-151003698D01*
X284864800Y-150777684D01*
X284790407Y-150532444D01*
X284771582Y-150341309D01*
X284771581Y-143743500D01*
X284790406Y-143552365D01*
X284864799Y-143307125D01*
X284985606Y-143081111D01*
X285148185Y-142883008D01*
X285346287Y-142720429D01*
X285346286Y-142720429D01*
X285346288Y-142720428D01*
X285572299Y-142599623D01*
X285572301Y-142599622D01*
X285817541Y-142525229D01*
X286072581Y-142500110D01*
X286327620Y-142525229D01*
X286327620Y-142525229D01*
G37*
G36*
X282367620Y-142525229D02*
G01*
X282612860Y-142599622D01*
X282838874Y-142720429D01*
X283036977Y-142883008D01*
X283199556Y-143081110D01*
X283320363Y-143307124D01*
X283394756Y-143552364D01*
X283413581Y-143743499D01*
X283413581Y-150341309D01*
X283394756Y-150532444D01*
X283320363Y-150777684D01*
X283199556Y-151003698D01*
X283157205Y-151055303D01*
X283036978Y-151201801D01*
X282890480Y-151322028D01*
X282838875Y-151364379D01*
X282612861Y-151485186D01*
X282367621Y-151559579D01*
X282112581Y-151584698D01*
X281857542Y-151559579D01*
X281612302Y-151485186D01*
X281386288Y-151364379D01*
X281334683Y-151322028D01*
X281188185Y-151201801D01*
X281067958Y-151055303D01*
X281025607Y-151003698D01*
X280904800Y-150777684D01*
X280830407Y-150532444D01*
X280811582Y-150341309D01*
X280811581Y-143743500D01*
X280830406Y-143552365D01*
X280904799Y-143307125D01*
X281025606Y-143081111D01*
X281188185Y-142883008D01*
X281386287Y-142720429D01*
X281386286Y-142720429D01*
X281386288Y-142720428D01*
X281612299Y-142599623D01*
X281612301Y-142599622D01*
X281857541Y-142525229D01*
X282112581Y-142500110D01*
X282367620Y-142525229D01*
X282367620Y-142525229D01*
G37*
G36*
X278407620Y-142525229D02*
G01*
X278652860Y-142599622D01*
X278878874Y-142720429D01*
X279076977Y-142883008D01*
X279239556Y-143081110D01*
X279360363Y-143307124D01*
X279434756Y-143552364D01*
X279453581Y-143743499D01*
X279453581Y-150341309D01*
X279434756Y-150532444D01*
X279360363Y-150777684D01*
X279239556Y-151003698D01*
X279197205Y-151055303D01*
X279076978Y-151201801D01*
X278930480Y-151322028D01*
X278878875Y-151364379D01*
X278652861Y-151485186D01*
X278407621Y-151559579D01*
X278152581Y-151584698D01*
X277897542Y-151559579D01*
X277652302Y-151485186D01*
X277426288Y-151364379D01*
X277374683Y-151322028D01*
X277228185Y-151201801D01*
X277107958Y-151055303D01*
X277065607Y-151003698D01*
X276944800Y-150777684D01*
X276870407Y-150532444D01*
X276851582Y-150341309D01*
X276851581Y-143743500D01*
X276870406Y-143552365D01*
X276944799Y-143307125D01*
X277065606Y-143081111D01*
X277228185Y-142883008D01*
X277426287Y-142720429D01*
X277426286Y-142720429D01*
X277426288Y-142720428D01*
X277652299Y-142599623D01*
X277652301Y-142599622D01*
X277897541Y-142525229D01*
X278152581Y-142500110D01*
X278407620Y-142525229D01*
X278407620Y-142525229D01*
G37*
G36*
X274447620Y-142525229D02*
G01*
X274692860Y-142599622D01*
X274918874Y-142720429D01*
X275116977Y-142883008D01*
X275279556Y-143081110D01*
X275400363Y-143307124D01*
X275474756Y-143552364D01*
X275493581Y-143743499D01*
X275493581Y-150341309D01*
X275474756Y-150532444D01*
X275400363Y-150777684D01*
X275279556Y-151003698D01*
X275237205Y-151055303D01*
X275116978Y-151201801D01*
X274970480Y-151322028D01*
X274918875Y-151364379D01*
X274692861Y-151485186D01*
X274447621Y-151559579D01*
X274192581Y-151584698D01*
X273937542Y-151559579D01*
X273692302Y-151485186D01*
X273466288Y-151364379D01*
X273414683Y-151322028D01*
X273268185Y-151201801D01*
X273147958Y-151055303D01*
X273105607Y-151003698D01*
X272984800Y-150777684D01*
X272910407Y-150532444D01*
X272891582Y-150341309D01*
X272891581Y-143743500D01*
X272910406Y-143552365D01*
X272984799Y-143307125D01*
X273105606Y-143081111D01*
X273268185Y-142883008D01*
X273466287Y-142720429D01*
X273466286Y-142720429D01*
X273466288Y-142720428D01*
X273692299Y-142599623D01*
X273692301Y-142599622D01*
X273937541Y-142525229D01*
X274192581Y-142500110D01*
X274447620Y-142525229D01*
X274447620Y-142525229D01*
G37*
G36*
X270487620Y-142525229D02*
G01*
X270732860Y-142599622D01*
X270958874Y-142720429D01*
X271156977Y-142883008D01*
X271319556Y-143081110D01*
X271440363Y-143307124D01*
X271514756Y-143552364D01*
X271533581Y-143743499D01*
X271533581Y-150341309D01*
X271514756Y-150532444D01*
X271440363Y-150777684D01*
X271319556Y-151003698D01*
X271277205Y-151055303D01*
X271156978Y-151201801D01*
X271010480Y-151322028D01*
X270958875Y-151364379D01*
X270732861Y-151485186D01*
X270487621Y-151559579D01*
X270232581Y-151584698D01*
X269977542Y-151559579D01*
X269732302Y-151485186D01*
X269506288Y-151364379D01*
X269454683Y-151322028D01*
X269308185Y-151201801D01*
X269187958Y-151055303D01*
X269145607Y-151003698D01*
X269024800Y-150777684D01*
X268950407Y-150532444D01*
X268931582Y-150341309D01*
X268931581Y-143743500D01*
X268950406Y-143552365D01*
X269024799Y-143307125D01*
X269145606Y-143081111D01*
X269308185Y-142883008D01*
X269506287Y-142720429D01*
X269506286Y-142720429D01*
X269506288Y-142720428D01*
X269732299Y-142599623D01*
X269732301Y-142599622D01*
X269977541Y-142525229D01*
X270232581Y-142500110D01*
X270487620Y-142525229D01*
X270487620Y-142525229D01*
G37*
G36*
X266527620Y-142525229D02*
G01*
X266772860Y-142599622D01*
X266998874Y-142720429D01*
X267196977Y-142883008D01*
X267359556Y-143081110D01*
X267480363Y-143307124D01*
X267554756Y-143552364D01*
X267573581Y-143743499D01*
X267573581Y-150341309D01*
X267554756Y-150532444D01*
X267480363Y-150777684D01*
X267359556Y-151003698D01*
X267317205Y-151055303D01*
X267196978Y-151201801D01*
X267050480Y-151322028D01*
X266998875Y-151364379D01*
X266772861Y-151485186D01*
X266527621Y-151559579D01*
X266272581Y-151584698D01*
X266017542Y-151559579D01*
X265772302Y-151485186D01*
X265546288Y-151364379D01*
X265494683Y-151322028D01*
X265348185Y-151201801D01*
X265227958Y-151055303D01*
X265185607Y-151003698D01*
X265064800Y-150777684D01*
X264990407Y-150532444D01*
X264971582Y-150341309D01*
X264971581Y-143743500D01*
X264990406Y-143552365D01*
X265064799Y-143307125D01*
X265185606Y-143081111D01*
X265348185Y-142883008D01*
X265546287Y-142720429D01*
X265546286Y-142720429D01*
X265546288Y-142720428D01*
X265772299Y-142599623D01*
X265772301Y-142599622D01*
X266017541Y-142525229D01*
X266272581Y-142500110D01*
X266527620Y-142525229D01*
X266527620Y-142525229D01*
G37*
G36*
X262567620Y-142525229D02*
G01*
X262812860Y-142599622D01*
X263038874Y-142720429D01*
X263236977Y-142883008D01*
X263399556Y-143081110D01*
X263520363Y-143307124D01*
X263594756Y-143552364D01*
X263613581Y-143743499D01*
X263613581Y-150341309D01*
X263594756Y-150532444D01*
X263520363Y-150777684D01*
X263399556Y-151003698D01*
X263357205Y-151055303D01*
X263236978Y-151201801D01*
X263090480Y-151322028D01*
X263038875Y-151364379D01*
X262812861Y-151485186D01*
X262567621Y-151559579D01*
X262312581Y-151584698D01*
X262057542Y-151559579D01*
X261812302Y-151485186D01*
X261586288Y-151364379D01*
X261534683Y-151322028D01*
X261388185Y-151201801D01*
X261267958Y-151055303D01*
X261225607Y-151003698D01*
X261104800Y-150777684D01*
X261030407Y-150532444D01*
X261011582Y-150341309D01*
X261011581Y-143743500D01*
X261030406Y-143552365D01*
X261104799Y-143307125D01*
X261225606Y-143081111D01*
X261388185Y-142883008D01*
X261586287Y-142720429D01*
X261586286Y-142720429D01*
X261586288Y-142720428D01*
X261812299Y-142599623D01*
X261812301Y-142599622D01*
X262057541Y-142525229D01*
X262312581Y-142500110D01*
X262567620Y-142525229D01*
X262567620Y-142525229D01*
G37*
G36*
X258607620Y-142525229D02*
G01*
X258852860Y-142599622D01*
X259078874Y-142720429D01*
X259276977Y-142883008D01*
X259439556Y-143081110D01*
X259560363Y-143307124D01*
X259634756Y-143552364D01*
X259653581Y-143743499D01*
X259653581Y-150341309D01*
X259634756Y-150532444D01*
X259560363Y-150777684D01*
X259439556Y-151003698D01*
X259397205Y-151055303D01*
X259276978Y-151201801D01*
X259130480Y-151322028D01*
X259078875Y-151364379D01*
X258852861Y-151485186D01*
X258607621Y-151559579D01*
X258352581Y-151584698D01*
X258097542Y-151559579D01*
X257852302Y-151485186D01*
X257626288Y-151364379D01*
X257574683Y-151322028D01*
X257428185Y-151201801D01*
X257307958Y-151055303D01*
X257265607Y-151003698D01*
X257144800Y-150777684D01*
X257070407Y-150532444D01*
X257051582Y-150341309D01*
X257051581Y-143743500D01*
X257070406Y-143552365D01*
X257144799Y-143307125D01*
X257265606Y-143081111D01*
X257428185Y-142883008D01*
X257626287Y-142720429D01*
X257626286Y-142720429D01*
X257626288Y-142720428D01*
X257852299Y-142599623D01*
X257852301Y-142599622D01*
X258097541Y-142525229D01*
X258352581Y-142500110D01*
X258607620Y-142525229D01*
X258607620Y-142525229D01*
G37*
G36*
X254647620Y-142525229D02*
G01*
X254892860Y-142599622D01*
X255118874Y-142720429D01*
X255316977Y-142883008D01*
X255479556Y-143081110D01*
X255600363Y-143307124D01*
X255674756Y-143552364D01*
X255693581Y-143743499D01*
X255693581Y-150341309D01*
X255674756Y-150532444D01*
X255600363Y-150777684D01*
X255479556Y-151003698D01*
X255437205Y-151055303D01*
X255316978Y-151201801D01*
X255170480Y-151322028D01*
X255118875Y-151364379D01*
X254892861Y-151485186D01*
X254647621Y-151559579D01*
X254392581Y-151584698D01*
X254137542Y-151559579D01*
X253892302Y-151485186D01*
X253666288Y-151364379D01*
X253614683Y-151322028D01*
X253468185Y-151201801D01*
X253347958Y-151055303D01*
X253305607Y-151003698D01*
X253184800Y-150777684D01*
X253110407Y-150532444D01*
X253091582Y-150341309D01*
X253091581Y-143743500D01*
X253110406Y-143552365D01*
X253184799Y-143307125D01*
X253305606Y-143081111D01*
X253468185Y-142883008D01*
X253666287Y-142720429D01*
X253666286Y-142720429D01*
X253666288Y-142720428D01*
X253892299Y-142599623D01*
X253892301Y-142599622D01*
X254137541Y-142525229D01*
X254392581Y-142500110D01*
X254647620Y-142525229D01*
X254647620Y-142525229D01*
G37*
G36*
X250687620Y-142525229D02*
G01*
X250932860Y-142599622D01*
X251158874Y-142720429D01*
X251356977Y-142883008D01*
X251519556Y-143081110D01*
X251640363Y-143307124D01*
X251714756Y-143552364D01*
X251733581Y-143743499D01*
X251733581Y-150341309D01*
X251714756Y-150532444D01*
X251640363Y-150777684D01*
X251519556Y-151003698D01*
X251477205Y-151055303D01*
X251356978Y-151201801D01*
X251210480Y-151322028D01*
X251158875Y-151364379D01*
X250932861Y-151485186D01*
X250687621Y-151559579D01*
X250432581Y-151584698D01*
X250177542Y-151559579D01*
X249932302Y-151485186D01*
X249706288Y-151364379D01*
X249654683Y-151322028D01*
X249508185Y-151201801D01*
X249387958Y-151055303D01*
X249345607Y-151003698D01*
X249224800Y-150777684D01*
X249150407Y-150532444D01*
X249131582Y-150341309D01*
X249131581Y-143743500D01*
X249150406Y-143552365D01*
X249224799Y-143307125D01*
X249345606Y-143081111D01*
X249508185Y-142883008D01*
X249706287Y-142720429D01*
X249706286Y-142720429D01*
X249706288Y-142720428D01*
X249932299Y-142599623D01*
X249932301Y-142599622D01*
X250177541Y-142525229D01*
X250432581Y-142500110D01*
X250687620Y-142525229D01*
X250687620Y-142525229D01*
G37*
G36*
X246727620Y-142525229D02*
G01*
X246972860Y-142599622D01*
X247198874Y-142720429D01*
X247396977Y-142883008D01*
X247559556Y-143081110D01*
X247680363Y-143307124D01*
X247754756Y-143552364D01*
X247773581Y-143743499D01*
X247773581Y-150341309D01*
X247754756Y-150532444D01*
X247680363Y-150777684D01*
X247559556Y-151003698D01*
X247517205Y-151055303D01*
X247396978Y-151201801D01*
X247250480Y-151322028D01*
X247198875Y-151364379D01*
X246972861Y-151485186D01*
X246727621Y-151559579D01*
X246472581Y-151584698D01*
X246217542Y-151559579D01*
X245972302Y-151485186D01*
X245746288Y-151364379D01*
X245694683Y-151322028D01*
X245548185Y-151201801D01*
X245427958Y-151055303D01*
X245385607Y-151003698D01*
X245264800Y-150777684D01*
X245190407Y-150532444D01*
X245171582Y-150341309D01*
X245171581Y-143743500D01*
X245190406Y-143552365D01*
X245264799Y-143307125D01*
X245385606Y-143081111D01*
X245548185Y-142883008D01*
X245746287Y-142720429D01*
X245746286Y-142720429D01*
X245746288Y-142720428D01*
X245972299Y-142599623D01*
X245972301Y-142599622D01*
X246217541Y-142525229D01*
X246472581Y-142500110D01*
X246727620Y-142525229D01*
X246727620Y-142525229D01*
G37*
G36*
X242767620Y-142525229D02*
G01*
X243012860Y-142599622D01*
X243238874Y-142720429D01*
X243436977Y-142883008D01*
X243599556Y-143081110D01*
X243720363Y-143307124D01*
X243794756Y-143552364D01*
X243813581Y-143743499D01*
X243813581Y-150341309D01*
X243794756Y-150532444D01*
X243720363Y-150777684D01*
X243599556Y-151003698D01*
X243557205Y-151055303D01*
X243436978Y-151201801D01*
X243290480Y-151322028D01*
X243238875Y-151364379D01*
X243012861Y-151485186D01*
X242767621Y-151559579D01*
X242512581Y-151584698D01*
X242257542Y-151559579D01*
X242012302Y-151485186D01*
X241786288Y-151364379D01*
X241734683Y-151322028D01*
X241588185Y-151201801D01*
X241467958Y-151055303D01*
X241425607Y-151003698D01*
X241304800Y-150777684D01*
X241230407Y-150532444D01*
X241211582Y-150341309D01*
X241211581Y-143743500D01*
X241230406Y-143552365D01*
X241304799Y-143307125D01*
X241425606Y-143081111D01*
X241588185Y-142883008D01*
X241786287Y-142720429D01*
X241786286Y-142720429D01*
X241786288Y-142720428D01*
X242012299Y-142599623D01*
X242012301Y-142599622D01*
X242257541Y-142525229D01*
X242512581Y-142500110D01*
X242767620Y-142525229D01*
X242767620Y-142525229D01*
G37*
G36*
X238807620Y-142525229D02*
G01*
X239052860Y-142599622D01*
X239278874Y-142720429D01*
X239476977Y-142883008D01*
X239639556Y-143081110D01*
X239760363Y-143307124D01*
X239834756Y-143552364D01*
X239853581Y-143743499D01*
X239853581Y-150341309D01*
X239834756Y-150532444D01*
X239760363Y-150777684D01*
X239639556Y-151003698D01*
X239597205Y-151055303D01*
X239476978Y-151201801D01*
X239330480Y-151322028D01*
X239278875Y-151364379D01*
X239052861Y-151485186D01*
X238807621Y-151559579D01*
X238552581Y-151584698D01*
X238297542Y-151559579D01*
X238052302Y-151485186D01*
X237826288Y-151364379D01*
X237774683Y-151322028D01*
X237628185Y-151201801D01*
X237507958Y-151055303D01*
X237465607Y-151003698D01*
X237344800Y-150777684D01*
X237270407Y-150532444D01*
X237251582Y-150341309D01*
X237251581Y-143743500D01*
X237270406Y-143552365D01*
X237344799Y-143307125D01*
X237465606Y-143081111D01*
X237628185Y-142883008D01*
X237826287Y-142720429D01*
X237826286Y-142720429D01*
X237826288Y-142720428D01*
X238052299Y-142599623D01*
X238052301Y-142599622D01*
X238297541Y-142525229D01*
X238552581Y-142500110D01*
X238807620Y-142525229D01*
X238807620Y-142525229D01*
G37*
G36*
X234847620Y-142525229D02*
G01*
X235092860Y-142599622D01*
X235318874Y-142720429D01*
X235516977Y-142883008D01*
X235679556Y-143081110D01*
X235800363Y-143307124D01*
X235874756Y-143552364D01*
X235893581Y-143743499D01*
X235893581Y-150341309D01*
X235874756Y-150532444D01*
X235800363Y-150777684D01*
X235679556Y-151003698D01*
X235637205Y-151055303D01*
X235516978Y-151201801D01*
X235370480Y-151322028D01*
X235318875Y-151364379D01*
X235092861Y-151485186D01*
X234847621Y-151559579D01*
X234592581Y-151584698D01*
X234337542Y-151559579D01*
X234092302Y-151485186D01*
X233866288Y-151364379D01*
X233814683Y-151322028D01*
X233668185Y-151201801D01*
X233547958Y-151055303D01*
X233505607Y-151003698D01*
X233384800Y-150777684D01*
X233310407Y-150532444D01*
X233291582Y-150341309D01*
X233291581Y-143743500D01*
X233310406Y-143552365D01*
X233384799Y-143307125D01*
X233505606Y-143081111D01*
X233668185Y-142883008D01*
X233866287Y-142720429D01*
X233866286Y-142720429D01*
X233866288Y-142720428D01*
X234092299Y-142599623D01*
X234092301Y-142599622D01*
X234337541Y-142525229D01*
X234592581Y-142500110D01*
X234847620Y-142525229D01*
X234847620Y-142525229D01*
G37*
G36*
X230887620Y-142525229D02*
G01*
X231132860Y-142599622D01*
X231358874Y-142720429D01*
X231556977Y-142883008D01*
X231719556Y-143081110D01*
X231840363Y-143307124D01*
X231914756Y-143552364D01*
X231933581Y-143743499D01*
X231933581Y-150341309D01*
X231914756Y-150532444D01*
X231840363Y-150777684D01*
X231719556Y-151003698D01*
X231677205Y-151055303D01*
X231556978Y-151201801D01*
X231410480Y-151322028D01*
X231358875Y-151364379D01*
X231132861Y-151485186D01*
X230887621Y-151559579D01*
X230632581Y-151584698D01*
X230377542Y-151559579D01*
X230132302Y-151485186D01*
X229906288Y-151364379D01*
X229854683Y-151322028D01*
X229708185Y-151201801D01*
X229587958Y-151055303D01*
X229545607Y-151003698D01*
X229424800Y-150777684D01*
X229350407Y-150532444D01*
X229331582Y-150341309D01*
X229331581Y-143743500D01*
X229350406Y-143552365D01*
X229424799Y-143307125D01*
X229545606Y-143081111D01*
X229708185Y-142883008D01*
X229906287Y-142720429D01*
X229906286Y-142720429D01*
X229906288Y-142720428D01*
X230132299Y-142599623D01*
X230132301Y-142599622D01*
X230377541Y-142525229D01*
X230632581Y-142500110D01*
X230887620Y-142525229D01*
X230887620Y-142525229D01*
G37*
G36*
X226927620Y-142525229D02*
G01*
X227172860Y-142599622D01*
X227398874Y-142720429D01*
X227596977Y-142883008D01*
X227759556Y-143081110D01*
X227880363Y-143307124D01*
X227954756Y-143552364D01*
X227973581Y-143743499D01*
X227973581Y-150341309D01*
X227954756Y-150532444D01*
X227880363Y-150777684D01*
X227759556Y-151003698D01*
X227717205Y-151055303D01*
X227596978Y-151201801D01*
X227450480Y-151322028D01*
X227398875Y-151364379D01*
X227172861Y-151485186D01*
X226927621Y-151559579D01*
X226672581Y-151584698D01*
X226417542Y-151559579D01*
X226172302Y-151485186D01*
X225946288Y-151364379D01*
X225894683Y-151322028D01*
X225748185Y-151201801D01*
X225627958Y-151055303D01*
X225585607Y-151003698D01*
X225464800Y-150777684D01*
X225390407Y-150532444D01*
X225371582Y-150341309D01*
X225371581Y-143743500D01*
X225390406Y-143552365D01*
X225464799Y-143307125D01*
X225585606Y-143081111D01*
X225748185Y-142883008D01*
X225946287Y-142720429D01*
X225946286Y-142720429D01*
X225946288Y-142720428D01*
X226172299Y-142599623D01*
X226172301Y-142599622D01*
X226417541Y-142525229D01*
X226672581Y-142500110D01*
X226927620Y-142525229D01*
X226927620Y-142525229D01*
G37*
G36*
X222967620Y-142525229D02*
G01*
X223212860Y-142599622D01*
X223438874Y-142720429D01*
X223636977Y-142883008D01*
X223799556Y-143081110D01*
X223920363Y-143307124D01*
X223994756Y-143552364D01*
X224013581Y-143743499D01*
X224013581Y-150341309D01*
X223994756Y-150532444D01*
X223920363Y-150777684D01*
X223799556Y-151003698D01*
X223757205Y-151055303D01*
X223636978Y-151201801D01*
X223490480Y-151322028D01*
X223438875Y-151364379D01*
X223212861Y-151485186D01*
X222967621Y-151559579D01*
X222712581Y-151584698D01*
X222457542Y-151559579D01*
X222212302Y-151485186D01*
X221986288Y-151364379D01*
X221934683Y-151322028D01*
X221788185Y-151201801D01*
X221667958Y-151055303D01*
X221625607Y-151003698D01*
X221504800Y-150777684D01*
X221430407Y-150532444D01*
X221411582Y-150341309D01*
X221411581Y-143743500D01*
X221430406Y-143552365D01*
X221504799Y-143307125D01*
X221625606Y-143081111D01*
X221788185Y-142883008D01*
X221986287Y-142720429D01*
X221986286Y-142720429D01*
X221986288Y-142720428D01*
X222212299Y-142599623D01*
X222212301Y-142599622D01*
X222457541Y-142525229D01*
X222712581Y-142500110D01*
X222967620Y-142525229D01*
X222967620Y-142525229D01*
G37*
G36*
X219007620Y-142525229D02*
G01*
X219252860Y-142599622D01*
X219478874Y-142720429D01*
X219676977Y-142883008D01*
X219839556Y-143081110D01*
X219960363Y-143307124D01*
X220034756Y-143552364D01*
X220053581Y-143743499D01*
X220053581Y-150341309D01*
X220034756Y-150532444D01*
X219960363Y-150777684D01*
X219839556Y-151003698D01*
X219797205Y-151055303D01*
X219676978Y-151201801D01*
X219530480Y-151322028D01*
X219478875Y-151364379D01*
X219252861Y-151485186D01*
X219007621Y-151559579D01*
X218752581Y-151584698D01*
X218497542Y-151559579D01*
X218252302Y-151485186D01*
X218026288Y-151364379D01*
X217974683Y-151322028D01*
X217828185Y-151201801D01*
X217707958Y-151055303D01*
X217665607Y-151003698D01*
X217544800Y-150777684D01*
X217470407Y-150532444D01*
X217451582Y-150341309D01*
X217451581Y-143743500D01*
X217470406Y-143552365D01*
X217544799Y-143307125D01*
X217665606Y-143081111D01*
X217828185Y-142883008D01*
X218026287Y-142720429D01*
X218026286Y-142720429D01*
X218026288Y-142720428D01*
X218252299Y-142599623D01*
X218252301Y-142599622D01*
X218497541Y-142525229D01*
X218752581Y-142500110D01*
X219007620Y-142525229D01*
X219007620Y-142525229D01*
G37*
G36*
X215047620Y-142525229D02*
G01*
X215292860Y-142599622D01*
X215518874Y-142720429D01*
X215716977Y-142883008D01*
X215879556Y-143081110D01*
X216000363Y-143307124D01*
X216074756Y-143552364D01*
X216093581Y-143743499D01*
X216093581Y-150341309D01*
X216074756Y-150532444D01*
X216000363Y-150777684D01*
X215879556Y-151003698D01*
X215837205Y-151055303D01*
X215716978Y-151201801D01*
X215570480Y-151322028D01*
X215518875Y-151364379D01*
X215292861Y-151485186D01*
X215047621Y-151559579D01*
X214792581Y-151584698D01*
X214537542Y-151559579D01*
X214292302Y-151485186D01*
X214066288Y-151364379D01*
X214014683Y-151322028D01*
X213868185Y-151201801D01*
X213747958Y-151055303D01*
X213705607Y-151003698D01*
X213584800Y-150777684D01*
X213510407Y-150532444D01*
X213491582Y-150341309D01*
X213491581Y-143743500D01*
X213510406Y-143552365D01*
X213584799Y-143307125D01*
X213705606Y-143081111D01*
X213868185Y-142883008D01*
X214066287Y-142720429D01*
X214066286Y-142720429D01*
X214066288Y-142720428D01*
X214292299Y-142599623D01*
X214292301Y-142599622D01*
X214537541Y-142525229D01*
X214792581Y-142500110D01*
X215047620Y-142525229D01*
X215047620Y-142525229D01*
G37*
G36*
X211087620Y-142525229D02*
G01*
X211332860Y-142599622D01*
X211558874Y-142720429D01*
X211756977Y-142883008D01*
X211919556Y-143081110D01*
X212040363Y-143307124D01*
X212114756Y-143552364D01*
X212133581Y-143743499D01*
X212133581Y-150341309D01*
X212114756Y-150532444D01*
X212040363Y-150777684D01*
X211919556Y-151003698D01*
X211877205Y-151055303D01*
X211756978Y-151201801D01*
X211610480Y-151322028D01*
X211558875Y-151364379D01*
X211332861Y-151485186D01*
X211087621Y-151559579D01*
X210832581Y-151584698D01*
X210577542Y-151559579D01*
X210332302Y-151485186D01*
X210106288Y-151364379D01*
X210054683Y-151322028D01*
X209908185Y-151201801D01*
X209787958Y-151055303D01*
X209745607Y-151003698D01*
X209624800Y-150777684D01*
X209550407Y-150532444D01*
X209531582Y-150341309D01*
X209531581Y-143743500D01*
X209550406Y-143552365D01*
X209624799Y-143307125D01*
X209745606Y-143081111D01*
X209908185Y-142883008D01*
X210106287Y-142720429D01*
X210106286Y-142720429D01*
X210106288Y-142720428D01*
X210332299Y-142599623D01*
X210332301Y-142599622D01*
X210577541Y-142525229D01*
X210832581Y-142500110D01*
X211087620Y-142525229D01*
X211087620Y-142525229D01*
G37*
G36*
X207127620Y-142525229D02*
G01*
X207372860Y-142599622D01*
X207598874Y-142720429D01*
X207796977Y-142883008D01*
X207959556Y-143081110D01*
X208080363Y-143307124D01*
X208154756Y-143552364D01*
X208173581Y-143743499D01*
X208173581Y-150341309D01*
X208154756Y-150532444D01*
X208080363Y-150777684D01*
X207959556Y-151003698D01*
X207917205Y-151055303D01*
X207796978Y-151201801D01*
X207650480Y-151322028D01*
X207598875Y-151364379D01*
X207372861Y-151485186D01*
X207127621Y-151559579D01*
X206872581Y-151584698D01*
X206617542Y-151559579D01*
X206372302Y-151485186D01*
X206146288Y-151364379D01*
X206094683Y-151322028D01*
X205948185Y-151201801D01*
X205827958Y-151055303D01*
X205785607Y-151003698D01*
X205664800Y-150777684D01*
X205590407Y-150532444D01*
X205571582Y-150341309D01*
X205571581Y-143743500D01*
X205590406Y-143552365D01*
X205664799Y-143307125D01*
X205785606Y-143081111D01*
X205948185Y-142883008D01*
X206146287Y-142720429D01*
X206146286Y-142720429D01*
X206146288Y-142720428D01*
X206372299Y-142599623D01*
X206372301Y-142599622D01*
X206617541Y-142525229D01*
X206872581Y-142500110D01*
X207127620Y-142525229D01*
X207127620Y-142525229D01*
G37*
G36*
X203167620Y-142525229D02*
G01*
X203412860Y-142599622D01*
X203638874Y-142720429D01*
X203836977Y-142883008D01*
X203999556Y-143081110D01*
X204120363Y-143307124D01*
X204194756Y-143552364D01*
X204213581Y-143743499D01*
X204213581Y-150341309D01*
X204194756Y-150532444D01*
X204120363Y-150777684D01*
X203999556Y-151003698D01*
X203957205Y-151055303D01*
X203836978Y-151201801D01*
X203690480Y-151322028D01*
X203638875Y-151364379D01*
X203412861Y-151485186D01*
X203167621Y-151559579D01*
X202912581Y-151584698D01*
X202657542Y-151559579D01*
X202412302Y-151485186D01*
X202186288Y-151364379D01*
X202134683Y-151322028D01*
X201988185Y-151201801D01*
X201867958Y-151055303D01*
X201825607Y-151003698D01*
X201704800Y-150777684D01*
X201630407Y-150532444D01*
X201611582Y-150341309D01*
X201611581Y-143743500D01*
X201630406Y-143552365D01*
X201704799Y-143307125D01*
X201825606Y-143081111D01*
X201988185Y-142883008D01*
X202186287Y-142720429D01*
X202186286Y-142720429D01*
X202186288Y-142720428D01*
X202412299Y-142599623D01*
X202412301Y-142599622D01*
X202657541Y-142525229D01*
X202912581Y-142500110D01*
X203167620Y-142525229D01*
X203167620Y-142525229D01*
G37*
G36*
X199207620Y-142525229D02*
G01*
X199452860Y-142599622D01*
X199678874Y-142720429D01*
X199876977Y-142883008D01*
X200039556Y-143081110D01*
X200160363Y-143307124D01*
X200234756Y-143552364D01*
X200253581Y-143743499D01*
X200253581Y-150341309D01*
X200234756Y-150532444D01*
X200160363Y-150777684D01*
X200039556Y-151003698D01*
X199997205Y-151055303D01*
X199876978Y-151201801D01*
X199730480Y-151322028D01*
X199678875Y-151364379D01*
X199452861Y-151485186D01*
X199207621Y-151559579D01*
X198952581Y-151584698D01*
X198697542Y-151559579D01*
X198452302Y-151485186D01*
X198226288Y-151364379D01*
X198174683Y-151322028D01*
X198028185Y-151201801D01*
X197907958Y-151055303D01*
X197865607Y-151003698D01*
X197744800Y-150777684D01*
X197670407Y-150532444D01*
X197651582Y-150341309D01*
X197651581Y-143743500D01*
X197670406Y-143552365D01*
X197744799Y-143307125D01*
X197865606Y-143081111D01*
X198028185Y-142883008D01*
X198226287Y-142720429D01*
X198226286Y-142720429D01*
X198226288Y-142720428D01*
X198452299Y-142599623D01*
X198452301Y-142599622D01*
X198697541Y-142525229D01*
X198952581Y-142500110D01*
X199207620Y-142525229D01*
X199207620Y-142525229D01*
G37*
M02*
